<svg id="visual" viewBox="0 0 960 540" width="960" height="540" xmlns="http://www.w3.org/2000/svg" xmlns:xlink="http://www.w3.org/1999/xlink" version="1.1"><g stroke-width="1" stroke-linejoin="bevel"><path d="M501.3 297L531.3 323L624 214Z" fill="#024351" stroke="#024351"></path><path d="M624 214L571.3 182L501.3 297Z" fill="#024351" stroke="#024351"></path><path d="M531.3 323L660 247L624 214Z" fill="#024351" stroke="#024351"></path><path d="M531.3 323L651 350L660 247Z" fill="#006e6f" stroke="#006e6f"></path><path d="M457.7 159L433.7 260L501.3 297Z" fill="#006e6f" stroke="#006e6f"></path><path d="M389.7 349L529.3 429L531.3 323Z" fill="#007c75" stroke="#007c75"></path><path d="M571.3 182L457.7 159L501.3 297Z" fill="#024351" stroke="#024351"></path><path d="M651 350L736.7 285L660 247Z" fill="#00101c" stroke="#00101c"></path><path d="M713.7 64L604 66L624 214Z" fill="#005f67" stroke="#005f67"></path><path d="M389.7 349L531.3 323L501.3 297Z" fill="#007c75" stroke="#007c75"></path><path d="M531.3 323L529.3 429L651 350Z" fill="#062937" stroke="#062937"></path><path d="M604 66L549.3 79L571.3 182Z" fill="#007c75" stroke="#007c75"></path><path d="M571.3 182L549.3 79L457.7 159Z" fill="#00515d" stroke="#00515d"></path><path d="M604 66L571.3 182L624 214Z" fill="#007c75" stroke="#007c75"></path><path d="M785.7 461L734.7 332L651 350Z" fill="#062937" stroke="#062937"></path><path d="M651 350L734.7 332L736.7 285Z" fill="#061d29" stroke="#061d29"></path><path d="M777.7 147L624 214L660 247Z" fill="#008b77" stroke="#008b77"></path><path d="M338 329L389.7 349L325 298Z" fill="#006e6f" stroke="#006e6f"></path><path d="M433.7 260L389.7 349L501.3 297Z" fill="#008b77" stroke="#008b77"></path><path d="M529.3 429L616 448L651 350Z" fill="#053644" stroke="#053644"></path><path d="M549.3 79L451.7 53L457.7 159Z" fill="#007c75" stroke="#007c75"></path><path d="M457.7 159L339 185L433.7 260Z" fill="#007c75" stroke="#007c75"></path><path d="M560.3 0L451.7 53L549.3 79Z" fill="#008b77" stroke="#008b77"></path><path d="M451.7 53L339 185L457.7 159Z" fill="#005f67" stroke="#005f67"></path><path d="M325 298L389.7 349L433.7 260Z" fill="#006e6f" stroke="#006e6f"></path><path d="M389.7 349L421.7 474L529.3 429Z" fill="#024351" stroke="#024351"></path><path d="M861.3 201L777.7 147L736.7 285Z" fill="#007c75" stroke="#007c75"></path><path d="M736.7 285L777.7 147L660 247Z" fill="#00101c" stroke="#00101c"></path><path d="M339 185L325 298L433.7 260Z" fill="#007c75" stroke="#007c75"></path><path d="M777.7 147L713.7 64L624 214Z" fill="#053644" stroke="#053644"></path><path d="M604 66L560.3 0L549.3 79Z" fill="#00101c" stroke="#00101c"></path><path d="M672 0L560.3 0L604 66Z" fill="#006e6f" stroke="#006e6f"></path><path d="M352 438L421.7 474L389.7 349Z" fill="#229977" stroke="#229977"></path><path d="M529.3 429L522.3 540L616 448Z" fill="#00515d" stroke="#00515d"></path><path d="M713.7 64L672 0L604 66Z" fill="#061d29" stroke="#061d29"></path><path d="M706.7 0L672 0L713.7 64Z" fill="#008b77" stroke="#008b77"></path><path d="M338 329L352 438L389.7 349Z" fill="#061d29" stroke="#061d29"></path><path d="M234.3 342L352 438L338 329Z" fill="#00515d" stroke="#00515d"></path><path d="M560.3 0L451.7 0L451.7 53Z" fill="#229977" stroke="#229977"></path><path d="M451.7 53L297 82L339 185Z" fill="#053644" stroke="#053644"></path><path d="M443.7 540L522.3 540L421.7 474Z" fill="#053644" stroke="#053644"></path><path d="M421.7 474L522.3 540L529.3 429Z" fill="#008b77" stroke="#008b77"></path><path d="M886.3 378L850.3 286L734.7 332Z" fill="#061d29" stroke="#061d29"></path><path d="M785.7 461L651 350L616 448Z" fill="#007c75" stroke="#007c75"></path><path d="M734.7 332L850.3 286L736.7 285Z" fill="#007c75" stroke="#007c75"></path><path d="M522.3 540L636 540L616 448Z" fill="#00101c" stroke="#00101c"></path><path d="M873.3 78L713.7 64L777.7 147Z" fill="#007c75" stroke="#007c75"></path><path d="M873.3 78L706.7 0L713.7 64Z" fill="#00101c" stroke="#00101c"></path><path d="M733.7 540L785.7 461L616 448Z" fill="#024351" stroke="#024351"></path><path d="M850.3 286L861.3 201L736.7 285Z" fill="#024351" stroke="#024351"></path><path d="M298 540L443.7 540L421.7 474Z" fill="#00515d" stroke="#00515d"></path><path d="M299 0L297 82L451.7 53Z" fill="#006e6f" stroke="#006e6f"></path><path d="M221.3 266L234.3 342L325 298Z" fill="#00515d" stroke="#00515d"></path><path d="M636 540L733.7 540L616 448Z" fill="#229977" stroke="#229977"></path><path d="M221.3 266L325 298L339 185Z" fill="#00515d" stroke="#00515d"></path><path d="M325 298L234.3 342L338 329Z" fill="#062937" stroke="#062937"></path><path d="M352 438L298 540L421.7 474Z" fill="#006e6f" stroke="#006e6f"></path><path d="M196.3 154L221.3 266L339 185Z" fill="#061d29" stroke="#061d29"></path><path d="M868.3 430L734.7 332L785.7 461Z" fill="#229977" stroke="#229977"></path><path d="M868.3 430L886.3 378L734.7 332Z" fill="#008b77" stroke="#008b77"></path><path d="M850.3 286L960 256L861.3 201Z" fill="#024351" stroke="#024351"></path><path d="M887.3 540L868.3 430L785.7 461Z" fill="#00515d" stroke="#00515d"></path><path d="M861.3 201L873.3 78L777.7 147Z" fill="#061d29" stroke="#061d29"></path><path d="M960 201L873.3 78L861.3 201Z" fill="#007c75" stroke="#007c75"></path><path d="M451.7 0L299 0L451.7 53Z" fill="#061d29" stroke="#061d29"></path><path d="M297 82L196.3 154L339 185Z" fill="#062937" stroke="#062937"></path><path d="M193.3 80L196.3 154L297 82Z" fill="#062937" stroke="#062937"></path><path d="M110.7 447L213.3 472L234.3 342Z" fill="#229977" stroke="#229977"></path><path d="M213.3 472L298 540L352 438Z" fill="#006e6f" stroke="#006e6f"></path><path d="M960 356L850.3 286L886.3 378Z" fill="#005f67" stroke="#005f67"></path><path d="M960 356L960 256L850.3 286Z" fill="#062937" stroke="#062937"></path><path d="M960 256L960 201L861.3 201Z" fill="#005f67" stroke="#005f67"></path><path d="M299 0L249.3 0L297 82Z" fill="#229977" stroke="#229977"></path><path d="M960 457L960 356L886.3 378Z" fill="#024351" stroke="#024351"></path><path d="M960 457L886.3 378L868.3 430Z" fill="#053644" stroke="#053644"></path><path d="M249.3 0L193.3 80L297 82Z" fill="#00515d" stroke="#00515d"></path><path d="M119.7 338L234.3 342L221.3 266Z" fill="#061d29" stroke="#061d29"></path><path d="M234.3 342L213.3 472L352 438Z" fill="#229977" stroke="#229977"></path><path d="M960 83L891.3 0L873.3 78Z" fill="#008b77" stroke="#008b77"></path><path d="M873.3 78L891.3 0L706.7 0Z" fill="#008b77" stroke="#008b77"></path><path d="M733.7 540L887.3 540L785.7 461Z" fill="#007c75" stroke="#007c75"></path><path d="M960 201L960 83L873.3 78Z" fill="#053644" stroke="#053644"></path><path d="M213.3 472L235.3 540L298 540Z" fill="#008b77" stroke="#008b77"></path><path d="M887.3 540L960 457L868.3 430Z" fill="#053644" stroke="#053644"></path><path d="M116.7 78L115.7 211L196.3 154Z" fill="#062937" stroke="#062937"></path><path d="M196.3 154L115.7 211L221.3 266Z" fill="#053644" stroke="#053644"></path><path d="M213.3 472L106.7 540L235.3 540Z" fill="#062937" stroke="#062937"></path><path d="M88.7 254L119.7 338L221.3 266Z" fill="#008b77" stroke="#008b77"></path><path d="M960 83L960 0L891.3 0Z" fill="#00515d" stroke="#00515d"></path><path d="M0 294L88.7 254L0 173Z" fill="#024351" stroke="#024351"></path><path d="M115.7 211L88.7 254L221.3 266Z" fill="#008b77" stroke="#008b77"></path><path d="M102.7 0L116.7 78L193.3 80Z" fill="#008b77" stroke="#008b77"></path><path d="M193.3 80L116.7 78L196.3 154Z" fill="#024351" stroke="#024351"></path><path d="M887.3 540L960 540L960 457Z" fill="#062937" stroke="#062937"></path><path d="M0 423L110.7 447L119.7 338Z" fill="#00101c" stroke="#00101c"></path><path d="M119.7 338L110.7 447L234.3 342Z" fill="#229977" stroke="#229977"></path><path d="M0 173L88.7 254L115.7 211Z" fill="#229977" stroke="#229977"></path><path d="M249.3 0L102.7 0L193.3 80Z" fill="#062937" stroke="#062937"></path><path d="M0 540L106.7 540L110.7 447Z" fill="#061d29" stroke="#061d29"></path><path d="M110.7 447L106.7 540L213.3 472Z" fill="#053644" stroke="#053644"></path><path d="M88.7 254L0 294L119.7 338Z" fill="#061d29" stroke="#061d29"></path><path d="M0 173L115.7 211L116.7 78Z" fill="#062937" stroke="#062937"></path><path d="M0 104L0 173L116.7 78Z" fill="#053644" stroke="#053644"></path><path d="M0 294L0 343L119.7 338Z" fill="#053644" stroke="#053644"></path><path d="M0 0L0 104L116.7 78Z" fill="#053644" stroke="#053644"></path><path d="M0 343L0 423L119.7 338Z" fill="#053644" stroke="#053644"></path><path d="M102.7 0L0 0L116.7 78Z" fill="#062937" stroke="#062937"></path><path d="M0 423L0 540L110.7 447Z" fill="#005f67" stroke="#005f67"></path></g></svg>